***** Terminator.4.Salvation.2009.DVDRiP.XviD.OPTIONAL-MULTI_SUB-Zen_Bud *****

Format                           : AVI
File size                        : 1.37 GiB
Duration                         : 1h 50mn
Overall bit rate                 : 1 782 Kbps

Video

Codec ID/Hint                    : XviD
Duration                         : 1h 50mn
Bit rate                         : 1 641 Kbps
Width                            : 720 pixels
Height                           : 428 pixels
Display aspect ratio             : 2.35:1
Stream size                      : 1.26 GiB (92%)
Writing library                  : XviD 1.1.2 (UTC 2006-11-01)

Audio

Format                           : MPEG Audio
Codec ID/Hint                    : MP3
Duration                         : 1h 50mn
Bit rate                         : 128 Kbps
Channel(s)                       : 2 channels
Sampling rate                    : 48.0 KHz
Stream size                      : 101 MiB (7%)
Writing library                  : LAME3.98
Language                         : English

Text #1
Language                         : English

Text #2
Language                         : French

Text #3
Language                         : Dutch

Text #4
Language                         : Arabic

Text #5
Language                         : Danish

Text #6
Language                         : Finnish

Text #7
Language                         : Norwegian

Text #8
Language                         : Swedish



After Skynet has destroyed much of humanity in a nuclear holocaust, a group of survivors led by John Connor struggles to keep the machines from finishing the job.


 
http://en.wikipedia.org/wiki/Terminator_Salvation